<?xml version="1.0" encoding="UTF-8"?>
<svg version="1.1" xmlns="http://www.w3.org/2000/svg" width="678" height="625">
<path d="M0 0 C223.74 0 447.48 0 678 0 C678 206.25 678 412.5 678 625 C454.26 625 230.52 625 0 625 C0 418.75 0 212.5 0 0 Z " fill="#020202" transform="translate(0,0)"/>
<path d="M0 0 C21.45 0 42.9 0 65 0 C68.37301026 11.24336753 68.37301026 11.24336753 69.54296875 16.7109375 C69.94044312 18.5503894 69.94044312 18.5503894 70.34594727 20.42700195 C70.48267853 21.06852203 70.61940979 21.71004211 70.76028442 22.3710022 C71.3550966 25.161168 71.95898941 27.94934803 72.56230164 30.73768616 C72.88231441 32.21687337 73.20189899 33.69615329 73.52107239 35.17552185 C75.33217296 43.56252162 77.19622997 51.9376356 79.0625 60.3125 C79.57054045 62.59355182 80.07852084 64.87461702 80.58648682 67.15568542 C80.91759951 68.64252627 81.24877555 70.12935301 81.58001709 71.61616516 C82.6132745 76.25598205 83.64062092 80.89706811 84.6640625 85.5390625 C87.1331617 96.72651293 89.63652224 107.90041096 92.35229492 119.03100586 C93.52363485 123.85945684 94.55289743 128.69845407 95.50878906 133.57397461 C96.2506006 137.23768297 97.12233901 140.86689171 98 144.5 C99.25180511 149.74478928 100.42179618 154.98508006 101.4375 160.28125 C102.21503316 164.03932692 103.1104977 167.76707283 104 171.5 C105.74407934 178.83322309 107.27591835 186.17984511 108.6796875 193.5859375 C110.09046262 200.87251827 111.70505044 207.94182515 114 215 C114.30292969 213.76507813 114.60585937 212.53015625 114.91796875 211.2578125 C116.96716801 202.95433801 119.04899181 194.66821187 121.375 186.4375 C123.39002784 179.29503785 125.2776121 172.12506908 127.125 164.9375 C130.60961674 151.39850581 134.22715871 137.89662312 137.86157227 124.3972168 C138.3322164 122.64893181 138.80283828 120.90064083 139.2734375 119.15234375 C139.50427536 118.29489059 139.73511322 117.43743744 139.97294617 116.55400085 C141.46682852 110.99916567 142.94599601 105.44061594 144.4140625 99.87890625 C144.78327049 98.48282507 145.15249208 97.08674748 145.52172852 95.69067383 C146.19739105 93.13535799 146.8691565 90.57912276 147.53881836 88.0222168 C147.98559937 86.33286011 147.98559937 86.33286011 148.44140625 84.609375 C148.82341187 83.1548291 148.82341187 83.1548291 149.21313477 81.67089844 C149.99033941 79.03279147 150.97318152 76.54900392 152 74 C152.4784408 71.77926033 152.91154008 69.54852804 153.3125 67.3125 C154.50477982 61.0324412 156.04807213 54.92144425 157.80517578 48.77783203 C159.26824652 43.65223985 160.67095109 38.51317041 162.03125 33.359375 C162.29715691 32.35330956 162.29715691 32.35330956 162.56843567 31.32691956 C163.28634216 28.60865707 164.00357877 25.89023665 164.71542358 23.17037964 C165.21768691 21.25218671 165.72401369 19.33505921 166.23046875 17.41796875 C166.52332764 16.30188232 166.81618652 15.1857959 167.11791992 14.03588867 C168 11 168 11 169.0480957 8.47387695 C170.29143978 5.48960474 170.29143978 5.48960474 171 0 C196.41 0 221.82 0 248 0 C250.48512079 7.45536238 252.74099398 14.52388657 254.4375 22.125 C256.00140618 28.9296426 257.69620978 35.66470599 259.625 42.375 C261.52367003 49.00030156 263.0162818 55.58485373 264.2265625 62.375 C264.80179947 65.07106016 265.45215262 67.57069519 266.265625 70.19140625 C268.87554454 78.68283461 270.94115528 87.3291703 273.125 95.9375 C273.61832496 97.87538816 274.11189946 99.81321282 274.60571289 101.75097656 C275.35623837 104.69613225 276.1066395 107.64131872 276.85627747 110.58670044 C278.86036908 118.46012739 280.88060337 126.32930882 282.90829468 134.19668579 C285.64770919 144.82560147 288.37422032 155.45773152 291.0859375 166.09375 C291.35287918 167.14052917 291.61982086 168.18730835 291.89485168 169.26580811 C293.21092816 174.42723628 294.52602235 179.58891178 295.83959961 184.75097656 C297.21938069 190.16912949 298.60554016 195.58560602 300 201 C300.305961 202.18855591 300.305961 202.18855591 300.61810303 203.40112305 C301.17207291 205.54461368 301.73125574 207.68665229 302.29296875 209.828125 C302.60129639 211.00793945 302.90962402 212.18775391 303.22729492 213.40332031 C303.74794217 215.90662863 303.74794217 215.90662863 305 217 C306.46843251 210.15310377 307.93564196 203.30596742 309.39453125 196.45703125 C311.88185813 184.79376739 314.39959314 173.13861468 317 161.5 C320.59300366 145.4089797 324.08695134 129.29587473 327.41796875 113.1484375 C327.75526001 111.51491333 327.75526001 111.51491333 328.09936523 109.84838867 C328.51947568 107.80742435 328.9371335 105.76595294 329.35180664 103.72387695 C330.135153 99.91114405 330.95041894 96.17230833 332.02734375 92.4296875 C333.46168971 87.37203389 334.31564202 82.22860542 335.23632812 77.05664062 C336.59962669 69.6405227 338.27326762 62.30510223 339.95874023 54.95722961 C342.49940068 43.86583813 344.90491191 32.7458997 347.3125 21.625 C348.859375 14.48875 350.40625 7.3525 352 0 C373.45 0 394.9 0 417 0 C415.92802164 11.79176196 415.92802164 11.79176196 413.81152344 16.84570312 C412.06299086 21.48741535 411.19144125 26.41582183 410.125 31.25 C409.59780072 33.5875663 409.06914125 35.92480373 408.5390625 38.26171875 C408.27899414 39.40946777 408.01892578 40.5572168 407.75097656 41.73974609 C406.72460093 46.19560441 405.6248641 50.63063591 404.5 55.0625 C402.62954882 62.44502866 400.82901497 69.84190551 399.0625 77.25 C397.09052293 85.51271032 395.07301605 93.76206153 393 102 C390.96895466 110.07142692 388.99209891 118.15372725 387.0625 126.25 C384.62756017 136.46533979 382.09541725 146.65422635 379.53540039 156.83886719 C377.60305744 164.54259552 375.7343041 172.25844872 373.91381836 179.98925781 C372.17433816 187.34267553 370.34181294 194.67162166 368.5 202 C365.79753109 212.75850341 363.17964109 223.53319389 360.63134766 234.32910156 C357.07117499 249.39031154 353.40676522 264.42161804 349.61914062 279.42724609 C347.22921153 288.95103371 345.00414816 298.5083667 342.86523438 308.09155273 C342.63384766 309.11708252 342.40246094 310.1426123 342.1640625 311.19921875 C341.96248535 312.10502686 341.7609082 313.01083496 341.55322266 313.9440918 C341 316 341 316 340 317 C337.85256451 317.09425595 335.70198974 317.11742648 333.55249023 317.11352539 C332.87934784 317.11367142 332.20620544 317.11381744 331.51266479 317.1139679 C329.27794216 317.11326878 327.0433019 317.10547652 324.80859375 317.09765625 C323.26302638 317.09579206 321.71745843 317.09436816 320.17189026 317.09336853 C316.09642923 317.0895434 312.02100363 317.07971317 307.94555664 317.06866455 C303.78988118 317.05845032 299.63420001 317.05387089 295.47851562 317.04882812 C287.31899413 317.03809089 279.15950147 317.02101454 271 317 C270.74387939 315.88085205 270.48775879 314.7617041 270.22387695 313.60864258 C268.44162225 305.88543077 266.61004389 298.23901677 264.1875 290.6875 C261.63394152 282.46578426 259.48872818 274.1726739 257.4375 265.8125 C255.45316382 257.72989459 253.41360655 249.70192062 250.98852539 241.74072266 C248.78441714 234.4354227 246.83665007 227.06070291 244.875 219.6875 C244.53799072 218.42309082 244.20098145 217.15868164 243.85375977 215.85595703 C242.36215255 210.23280824 240.89478662 204.60693864 239.5078125 198.95703125 C238.14960131 193.4753201 236.60302294 188.05775049 235.03515625 182.6328125 C232.91399154 175.18872503 230.97512227 167.69479924 229 160.2109375 C227.0258092 152.76145189 224.97932265 145.3410372 222.83813477 137.93798828 C221.80266722 134.30827186 220.88762799 130.66886236 220 127 C218.46966628 120.69317011 216.85951089 114.42418485 215.0625 108.1875 C213.60143668 103.11044599 212.14887845 98.03202595 210.75 92.9375 C210.41484375 91.72964844 210.0796875 90.52179688 209.734375 89.27734375 C209.08328806 86.37169511 208.84343408 83.95797765 209 81 C208.34 81 207.68 81 207 81 C206.89042969 81.73863281 206.78085937 82.47726563 206.66796875 83.23828125 C205.38471916 91.44899206 203.39890152 99.2402521 201.05859375 107.203125 C199.2434275 113.43875494 197.5716921 119.67081494 196.125 126 C193.17036977 138.86339756 189.52213646 151.54364182 185.9765625 164.25390625 C181.39284692 180.67373703 181.39284692 180.67373703 177.36669922 197.2355957 C176.10457218 202.77819234 174.50486931 208.18515209 172.85693359 213.62133789 C171.15362999 219.3062284 169.76745197 225.03269637 168.45361328 230.81835938 C167.15206294 236.50025428 165.60252932 242.07089383 163.9296875 247.65625 C163.21925507 250.21141873 162.61397594 252.72276446 162.0625 255.3125 C161.01577569 260.13168761 159.59485937 264.7957039 158.125 269.5 C156.19203382 275.79848159 154.44864641 282.07239238 153 288.5 C150.74002918 298.104876 147.83531142 307.54896195 145 317 C121.9 317 98.8 317 75 317 C71.30224793 301.68074141 67.6315022 286.41864705 64.1796875 271.0546875 C62.87985039 265.3860135 61.38243959 259.77631349 59.87011719 254.16137695 C58.07101202 247.42032856 56.53102227 240.63379237 55.015625 233.82421875 C53.30127789 226.18373348 51.41958505 218.59127366 49.5 211 C47.17849072 201.81384608 44.97230751 192.61556841 42.9140625 183.3671875 C41.23314902 175.879482 39.38007072 168.43993799 37.5 161 C35.17865035 151.81380436 32.97230842 142.61557248 30.9140625 133.3671875 C29.23314902 125.879482 27.38007072 118.43993799 25.5 111 C23.39929792 102.68696529 21.36268882 94.36967141 19.5 86 C17.33727698 76.28227353 14.94458548 66.62844851 12.49804688 56.97851562 C10.84755961 50.45624526 9.27854063 43.9225892 7.78125 37.36352539 C6.94315057 33.75524544 6.06420467 30.15870977 5.17578125 26.5625 C4.86962891 25.31855469 4.56347656 24.07460937 4.24804688 22.79296875 C3.77601598 20.87922345 3.30387679 18.96549851 2.82592773 17.05322266 C2.35390479 15.16179839 1.88973815 13.26841897 1.42578125 11.375 C1.15161377 10.26898438 0.87744629 9.16296875 0.5949707 8.0234375 C0 5 0 5 0 0 Z " fill="#FDFDFD" transform="translate(124,108)"/>
</svg>
